<svg xmlns="http://www.w3.org/2000/svg" version="1.1" xmlns:xlink="http://www.w3.org/1999/xlink" xmlns:svgjs="http://svgjs.dev/svgjs" width="1440" height="560" preserveAspectRatio="none" viewBox="0 0 1440 560"><g mask="url(&quot;#SvgjsMask1003&quot;)" fill="none"><path d="M1560 560L0 560 L0 370.34Q49.06 299.39, 120 348.45Q157.07 265.52, 240 302.59Q267.48 258.06, 312 285.54Q362.55 264.09, 384 314.63Q436.81 247.44, 504 300.24Q577.66 253.9, 624 327.57Q705.94 289.51, 744 371.45Q766.35 273.8, 864 296.15Q934.44 246.59, 984 317.03Q1044.99 306.01, 1056 367Q1079.41 318.41, 1128 341.82Q1164.56 258.38, 1248 294.94Q1290.95 265.89, 1320 308.84Q1367.1 235.93, 1440 283.03Q1505.39 228.42, 1560 293.82z" fill="#182f5d"></path><path d="M1560 560L0 560 L0 396.41Q40.68 317.09, 120 357.76Q192.46 310.22, 240 382.67Q317.08 339.75, 360 416.83Q402.43 387.25, 432 429.68Q440.76 366.44, 504 375.2Q530.78 329.98, 576 356.75Q628.93 337.68, 648 390.61Q730.11 352.72, 768 434.83Q789.71 384.54, 840 406.26Q860.99 355.25, 912 376.23Q966.2 310.43, 1032 364.63Q1086.45 347.08, 1104 401.53Q1156.7 382.24, 1176 434.94Q1194.68 333.62, 1296 352.3Q1337.92 322.22, 1368 364.14Q1428.02 352.16, 1440 412.19Q1492.47 344.66, 1560 397.13z" fill="rgba(255, 141, 121, 1)"></path><path d="M1488 560L0 560 L0 497.73Q4.9 430.63, 72 435.53Q124.9 368.43, 192 421.33Q283.09 392.42, 312 483.52Q356.48 408, 432 452.48Q491.29 439.77, 504 499.07Q510.14 433.21, 576 439.35Q617.36 408.71, 648 450.06Q713.83 395.89, 768 461.72Q831.73 453.45, 840 517.18Q855.97 461.15, 912 477.12Q965.61 410.73, 1032 464.33Q1058.54 418.87, 1104 445.41Q1153.12 374.53, 1224 423.65Q1278.56 406.21, 1296 460.77Q1383.35 428.12, 1416 515.47Q1434.51 461.98, 1488 480.48z" fill="#356cb1"></path><path d="M1512 560L0 560 L0 563.11Q42.18 485.29, 120 527.46Q161.73 497.19, 192 538.93Q245.95 520.88, 264 574.82Q294.93 485.75, 384 516.68Q407.22 467.89, 456 491.11Q498.97 462.08, 528 505.05Q578.28 483.33, 600 533.61Q660.33 521.94, 672 582.28Q693.5 483.77, 792 505.27Q820.58 461.85, 864 490.43Q920.76 475.19, 936 531.94Q990.49 514.43, 1008 568.92Q1052.4 541.32, 1080 585.72Q1103.07 488.79, 1200 511.86Q1250.55 442.41, 1320 492.96Q1421.13 474.1, 1440 575.23Q1457.61 520.84, 1512 538.45z" fill="white"></path></g><defs><mask id="SvgjsMask1003"><rect width="1440" height="560" fill="#ffffff"></rect></mask></defs></svg>