<svg xmlns="http://www.w3.org/2000/svg" version="1.1" xmlns:xlink="http://www.w3.org/1999/xlink" xmlns:svgjs="http://svgjs.dev/svgjs" width="1440" height="560" preserveAspectRatio="none" viewBox="0 0 1440 560"><g mask="url(&quot;#SvgjsMask1112&quot;)" fill="none"><rect width="1440" height="560" x="0" y="0" fill="rgba(255, 255, 255, 1)"></rect><path d="M97.87 86.45L152.43 117.95L152.43 180.95L97.87 212.45L43.31 180.95L43.31 117.95zM97.87 275.45L152.43 306.95L152.43 369.95L97.87 401.45L43.31 369.95L43.31 306.95zM43.31 369.95L97.87 401.45L97.87 464.45L43.31 495.95L-11.25 464.45L-11.25 401.45zM152.43 180.95L206.99 212.45L206.99 275.45L152.43 306.95L97.87 275.45L97.87 212.45zM206.99 275.45L261.55 306.95L261.55 369.95L206.99 401.45L152.43 369.95L152.43 306.95zM261.55 180.95L316.12 212.45L316.12 275.45L261.55 306.95L206.99 275.45L206.99 212.45zM316.12 464.45L370.68 495.95L370.68 558.95L316.12 590.45L261.55 558.95L261.55 495.95zM425.24 86.45L479.8 117.95L479.8 180.95L425.24 212.45L370.68 180.95L370.68 117.95zM370.68 180.95L425.24 212.45L425.24 275.45L370.68 306.95L316.12 275.45L316.12 212.45zM425.24 464.45L479.8 495.95L479.8 558.95L425.24 590.45L370.68 558.95L370.68 495.95zM534.36 86.45L588.92 117.95L588.92 180.95L534.36 212.45L479.8 180.95L479.8 117.95zM643.48 86.45L698.04 117.95L698.04 180.95L643.48 212.45L588.92 180.95L588.92 117.95zM588.92 180.95L643.48 212.45L643.48 275.45L588.92 306.95L534.36 275.45L534.36 212.45zM698.04 -8.05L752.6 23.45L752.6 86.45L698.04 117.95L643.48 86.45L643.48 23.45zM861.73 86.45L916.29 117.95L916.29 180.95L861.73 212.45L807.17 180.95L807.17 117.95zM1025.41 369.95L1079.97 401.45L1079.97 464.45L1025.41 495.95L970.85 464.45L970.85 401.45zM1025.41 558.95L1079.97 590.45L1079.97 653.45L1025.41 684.95L970.85 653.45L970.85 590.45zM1134.53 369.95L1189.09 401.45L1189.09 464.45L1134.53 495.95L1079.97 464.45L1079.97 401.45zM1134.53 558.95L1189.09 590.45L1189.09 653.45L1134.53 684.95L1079.97 653.45L1079.97 590.45zM1298.22 86.45L1352.78 117.95L1352.78 180.95L1298.22 212.45L1243.66 180.95L1243.66 117.95zM1243.66 180.95L1298.22 212.45L1298.22 275.45L1243.66 306.95L1189.09 275.45L1189.09 212.45zM1243.66 369.95L1298.22 401.45L1298.22 464.45L1243.66 495.95L1189.09 464.45L1189.09 401.45zM1298.22 464.45L1352.78 495.95L1352.78 558.95L1298.22 590.45L1243.66 558.95L1243.66 495.95zM1352.78 180.95L1407.34 212.45L1407.34 275.45L1352.78 306.95L1298.22 275.45L1298.22 212.45zM1352.78 369.95L1407.34 401.45L1407.34 464.45L1352.78 495.95L1298.22 464.45L1298.22 401.45zM1516.46 86.45L1571.02 117.95L1571.02 180.95L1516.46 212.45L1461.9 180.95L1461.9 117.95z" stroke="rgba(255, 141, 121, 1)" stroke-width="2"></path><path d="M91.57 86.45 a6.3 6.3 0 1 0 12.6 0 a6.3 6.3 0 1 0 -12.6 0zM146.13 117.95 a6.3 6.3 0 1 0 12.6 0 a6.3 6.3 0 1 0 -12.6 0zM146.13 180.95 a6.3 6.3 0 1 0 12.6 0 a6.3 6.3 0 1 0 -12.6 0zM91.57 212.45 a6.3 6.3 0 1 0 12.6 0 a6.3 6.3 0 1 0 -12.6 0zM37.01 180.95 a6.3 6.3 0 1 0 12.6 0 a6.3 6.3 0 1 0 -12.6 0zM37.01 117.95 a6.3 6.3 0 1 0 12.6 0 a6.3 6.3 0 1 0 -12.6 0zM91.57 275.45 a6.3 6.3 0 1 0 12.6 0 a6.3 6.3 0 1 0 -12.6 0zM146.13 306.95 a6.3 6.3 0 1 0 12.6 0 a6.3 6.3 0 1 0 -12.6 0zM146.13 369.95 a6.3 6.3 0 1 0 12.6 0 a6.3 6.3 0 1 0 -12.6 0zM91.57 401.45 a6.3 6.3 0 1 0 12.6 0 a6.3 6.3 0 1 0 -12.6 0zM37.01 369.95 a6.3 6.3 0 1 0 12.6 0 a6.3 6.3 0 1 0 -12.6 0zM37.01 306.95 a6.3 6.3 0 1 0 12.6 0 a6.3 6.3 0 1 0 -12.6 0zM91.57 464.45 a6.3 6.3 0 1 0 12.6 0 a6.3 6.3 0 1 0 -12.6 0zM37.01 495.95 a6.3 6.3 0 1 0 12.6 0 a6.3 6.3 0 1 0 -12.6 0zM-17.55 464.45 a6.3 6.3 0 1 0 12.6 0 a6.3 6.3 0 1 0 -12.6 0zM-17.55 401.45 a6.3 6.3 0 1 0 12.6 0 a6.3 6.3 0 1 0 -12.6 0zM200.69 212.45 a6.3 6.3 0 1 0 12.6 0 a6.3 6.3 0 1 0 -12.6 0zM200.69 275.45 a6.3 6.3 0 1 0 12.6 0 a6.3 6.3 0 1 0 -12.6 0zM255.25 306.95 a6.3 6.3 0 1 0 12.6 0 a6.3 6.3 0 1 0 -12.6 0zM255.25 369.95 a6.3 6.3 0 1 0 12.6 0 a6.3 6.3 0 1 0 -12.6 0zM200.69 401.45 a6.3 6.3 0 1 0 12.6 0 a6.3 6.3 0 1 0 -12.6 0zM255.25 180.95 a6.3 6.3 0 1 0 12.6 0 a6.3 6.3 0 1 0 -12.6 0zM309.82 212.45 a6.3 6.3 0 1 0 12.6 0 a6.3 6.3 0 1 0 -12.6 0zM309.82 275.45 a6.3 6.3 0 1 0 12.6 0 a6.3 6.3 0 1 0 -12.6 0zM309.82 464.45 a6.3 6.3 0 1 0 12.6 0 a6.3 6.3 0 1 0 -12.6 0zM364.38 495.95 a6.3 6.3 0 1 0 12.6 0 a6.3 6.3 0 1 0 -12.6 0zM364.38 558.95 a6.3 6.3 0 1 0 12.6 0 a6.3 6.3 0 1 0 -12.6 0zM309.82 590.45 a6.3 6.3 0 1 0 12.6 0 a6.3 6.3 0 1 0 -12.6 0zM255.25 558.95 a6.3 6.3 0 1 0 12.6 0 a6.3 6.3 0 1 0 -12.6 0zM255.25 495.95 a6.3 6.3 0 1 0 12.6 0 a6.3 6.3 0 1 0 -12.6 0zM418.94 86.45 a6.3 6.3 0 1 0 12.6 0 a6.3 6.3 0 1 0 -12.6 0zM473.5 117.95 a6.3 6.3 0 1 0 12.6 0 a6.3 6.3 0 1 0 -12.6 0zM473.5 180.95 a6.3 6.3 0 1 0 12.6 0 a6.3 6.3 0 1 0 -12.6 0zM418.94 212.45 a6.3 6.3 0 1 0 12.6 0 a6.3 6.3 0 1 0 -12.6 0zM364.38 180.95 a6.3 6.3 0 1 0 12.6 0 a6.3 6.3 0 1 0 -12.6 0zM364.38 117.95 a6.3 6.3 0 1 0 12.6 0 a6.3 6.3 0 1 0 -12.6 0zM418.94 275.45 a6.3 6.3 0 1 0 12.6 0 a6.3 6.3 0 1 0 -12.6 0zM364.38 306.95 a6.3 6.3 0 1 0 12.6 0 a6.3 6.3 0 1 0 -12.6 0zM418.94 464.45 a6.3 6.3 0 1 0 12.6 0 a6.3 6.3 0 1 0 -12.6 0zM473.5 495.95 a6.3 6.3 0 1 0 12.6 0 a6.3 6.3 0 1 0 -12.6 0zM473.5 558.95 a6.3 6.3 0 1 0 12.6 0 a6.3 6.3 0 1 0 -12.6 0zM418.94 590.45 a6.3 6.3 0 1 0 12.6 0 a6.3 6.3 0 1 0 -12.6 0zM528.06 86.45 a6.3 6.3 0 1 0 12.6 0 a6.3 6.3 0 1 0 -12.6 0zM582.62 117.95 a6.3 6.3 0 1 0 12.6 0 a6.3 6.3 0 1 0 -12.6 0zM582.62 180.95 a6.3 6.3 0 1 0 12.6 0 a6.3 6.3 0 1 0 -12.6 0zM528.06 212.45 a6.3 6.3 0 1 0 12.6 0 a6.3 6.3 0 1 0 -12.6 0zM637.18 86.45 a6.3 6.3 0 1 0 12.6 0 a6.3 6.3 0 1 0 -12.6 0zM691.74 117.95 a6.3 6.3 0 1 0 12.6 0 a6.3 6.3 0 1 0 -12.6 0zM691.74 180.95 a6.3 6.3 0 1 0 12.6 0 a6.3 6.3 0 1 0 -12.6 0zM637.18 212.45 a6.3 6.3 0 1 0 12.6 0 a6.3 6.3 0 1 0 -12.6 0zM637.18 275.45 a6.3 6.3 0 1 0 12.6 0 a6.3 6.3 0 1 0 -12.6 0zM582.62 306.95 a6.3 6.3 0 1 0 12.6 0 a6.3 6.3 0 1 0 -12.6 0zM528.06 275.45 a6.3 6.3 0 1 0 12.6 0 a6.3 6.3 0 1 0 -12.6 0zM691.74 -8.05 a6.3 6.3 0 1 0 12.6 0 a6.3 6.3 0 1 0 -12.6 0zM746.3 23.45 a6.3 6.3 0 1 0 12.6 0 a6.3 6.3 0 1 0 -12.6 0zM746.3 86.45 a6.3 6.3 0 1 0 12.6 0 a6.3 6.3 0 1 0 -12.6 0zM637.18 23.45 a6.3 6.3 0 1 0 12.6 0 a6.3 6.3 0 1 0 -12.6 0zM855.43 86.45 a6.3 6.3 0 1 0 12.6 0 a6.3 6.3 0 1 0 -12.6 0zM909.99 117.95 a6.3 6.3 0 1 0 12.6 0 a6.3 6.3 0 1 0 -12.6 0zM909.99 180.95 a6.3 6.3 0 1 0 12.6 0 a6.3 6.3 0 1 0 -12.6 0zM855.43 212.45 a6.3 6.3 0 1 0 12.6 0 a6.3 6.3 0 1 0 -12.6 0zM800.87 180.95 a6.3 6.3 0 1 0 12.6 0 a6.3 6.3 0 1 0 -12.6 0zM800.87 117.95 a6.3 6.3 0 1 0 12.6 0 a6.3 6.3 0 1 0 -12.6 0zM1019.11 369.95 a6.3 6.3 0 1 0 12.6 0 a6.3 6.3 0 1 0 -12.6 0zM1073.67 401.45 a6.3 6.3 0 1 0 12.6 0 a6.3 6.3 0 1 0 -12.6 0zM1073.67 464.45 a6.3 6.3 0 1 0 12.6 0 a6.3 6.3 0 1 0 -12.6 0zM1019.11 495.95 a6.3 6.3 0 1 0 12.6 0 a6.3 6.3 0 1 0 -12.6 0zM964.55 464.45 a6.3 6.3 0 1 0 12.6 0 a6.3 6.3 0 1 0 -12.6 0zM964.55 401.45 a6.3 6.3 0 1 0 12.6 0 a6.3 6.3 0 1 0 -12.6 0zM1019.11 558.95 a6.3 6.3 0 1 0 12.6 0 a6.3 6.3 0 1 0 -12.6 0zM1073.67 590.45 a6.3 6.3 0 1 0 12.6 0 a6.3 6.3 0 1 0 -12.6 0zM1073.67 653.45 a6.3 6.3 0 1 0 12.6 0 a6.3 6.3 0 1 0 -12.6 0zM1019.11 684.95 a6.3 6.3 0 1 0 12.6 0 a6.3 6.3 0 1 0 -12.6 0zM964.55 653.45 a6.3 6.3 0 1 0 12.6 0 a6.3 6.3 0 1 0 -12.6 0zM964.55 590.45 a6.3 6.3 0 1 0 12.6 0 a6.3 6.3 0 1 0 -12.6 0zM1128.23 369.95 a6.3 6.3 0 1 0 12.6 0 a6.3 6.3 0 1 0 -12.6 0zM1182.79 401.45 a6.3 6.3 0 1 0 12.6 0 a6.3 6.3 0 1 0 -12.6 0zM1182.79 464.45 a6.3 6.3 0 1 0 12.6 0 a6.3 6.3 0 1 0 -12.6 0zM1128.23 495.95 a6.3 6.3 0 1 0 12.6 0 a6.3 6.3 0 1 0 -12.6 0zM1128.23 558.95 a6.3 6.3 0 1 0 12.6 0 a6.3 6.3 0 1 0 -12.6 0zM1182.79 590.45 a6.3 6.3 0 1 0 12.6 0 a6.3 6.3 0 1 0 -12.6 0zM1182.79 653.45 a6.3 6.3 0 1 0 12.6 0 a6.3 6.3 0 1 0 -12.6 0zM1128.23 684.95 a6.3 6.3 0 1 0 12.6 0 a6.3 6.3 0 1 0 -12.6 0zM1291.92 86.45 a6.3 6.3 0 1 0 12.6 0 a6.3 6.3 0 1 0 -12.6 0zM1346.48 117.95 a6.3 6.3 0 1 0 12.6 0 a6.3 6.3 0 1 0 -12.6 0zM1346.48 180.95 a6.3 6.3 0 1 0 12.6 0 a6.3 6.3 0 1 0 -12.6 0zM1291.92 212.45 a6.3 6.3 0 1 0 12.6 0 a6.3 6.3 0 1 0 -12.6 0zM1237.36 180.95 a6.3 6.3 0 1 0 12.6 0 a6.3 6.3 0 1 0 -12.6 0zM1237.36 117.95 a6.3 6.3 0 1 0 12.6 0 a6.3 6.3 0 1 0 -12.6 0zM1291.92 275.45 a6.3 6.3 0 1 0 12.6 0 a6.3 6.3 0 1 0 -12.6 0zM1237.36 306.95 a6.3 6.3 0 1 0 12.6 0 a6.3 6.3 0 1 0 -12.6 0zM1182.79 275.45 a6.3 6.3 0 1 0 12.6 0 a6.3 6.3 0 1 0 -12.6 0zM1182.79 212.45 a6.3 6.3 0 1 0 12.6 0 a6.3 6.3 0 1 0 -12.6 0zM1237.36 369.95 a6.3 6.3 0 1 0 12.6 0 a6.3 6.3 0 1 0 -12.6 0zM1291.92 401.45 a6.3 6.3 0 1 0 12.6 0 a6.3 6.3 0 1 0 -12.6 0zM1291.92 464.45 a6.3 6.3 0 1 0 12.6 0 a6.3 6.3 0 1 0 -12.6 0zM1237.36 495.95 a6.3 6.3 0 1 0 12.6 0 a6.3 6.3 0 1 0 -12.6 0zM1346.48 495.95 a6.3 6.3 0 1 0 12.6 0 a6.3 6.3 0 1 0 -12.6 0zM1346.48 558.95 a6.3 6.3 0 1 0 12.6 0 a6.3 6.3 0 1 0 -12.6 0zM1291.92 590.45 a6.3 6.3 0 1 0 12.6 0 a6.3 6.3 0 1 0 -12.6 0zM1237.36 558.95 a6.3 6.3 0 1 0 12.6 0 a6.3 6.3 0 1 0 -12.6 0zM1401.04 212.45 a6.3 6.3 0 1 0 12.6 0 a6.3 6.3 0 1 0 -12.6 0zM1401.04 275.45 a6.3 6.3 0 1 0 12.6 0 a6.3 6.3 0 1 0 -12.6 0zM1346.48 306.95 a6.3 6.3 0 1 0 12.6 0 a6.3 6.3 0 1 0 -12.6 0zM1346.48 369.95 a6.3 6.3 0 1 0 12.6 0 a6.3 6.3 0 1 0 -12.6 0zM1401.04 401.45 a6.3 6.3 0 1 0 12.6 0 a6.3 6.3 0 1 0 -12.6 0zM1401.04 464.45 a6.3 6.3 0 1 0 12.6 0 a6.3 6.3 0 1 0 -12.6 0zM1510.16 86.45 a6.3 6.3 0 1 0 12.6 0 a6.3 6.3 0 1 0 -12.6 0zM1564.72 117.95 a6.3 6.3 0 1 0 12.6 0 a6.3 6.3 0 1 0 -12.6 0zM1564.72 180.95 a6.3 6.3 0 1 0 12.6 0 a6.3 6.3 0 1 0 -12.6 0zM1510.16 212.45 a6.3 6.3 0 1 0 12.6 0 a6.3 6.3 0 1 0 -12.6 0zM1455.6 180.95 a6.3 6.3 0 1 0 12.6 0 a6.3 6.3 0 1 0 -12.6 0zM1455.6 117.95 a6.3 6.3 0 1 0 12.6 0 a6.3 6.3 0 1 0 -12.6 0z" fill="rgba(255, 141, 121, 1)"></path><path d="M115.02 60.5L176.51 96L176.51 167L115.02 202.5L53.53 167L53.53 96zM53.53 167L115.02 202.5L115.02 273.5L53.53 309L-7.96 273.5L-7.96 202.5zM115.02 486.5L176.51 522L176.51 593L115.02 628.5L53.53 593L53.53 522zM238 60.5L299.49 96L299.49 167L238 202.5L176.51 167L176.51 96zM238 486.5L299.49 522L299.49 593L238 628.5L176.51 593L176.51 522zM360.98 486.5L422.47 522L422.47 593L360.98 628.5L299.49 593L299.49 522zM422.47 -46L483.96 -10.5L483.96 60.5L422.47 96L360.98 60.5L360.98 -10.5zM483.96 486.5L545.45 522L545.45 593L483.96 628.5L422.47 593L422.47 522zM545.45 -46L606.94 -10.5L606.94 60.5L545.45 96L483.96 60.5L483.96 -10.5zM606.94 60.5L668.43 96L668.43 167L606.94 202.5L545.45 167L545.45 96zM545.45 380L606.94 415.5L606.94 486.5L545.45 522L483.96 486.5L483.96 415.5zM668.43 380L729.92 415.5L729.92 486.5L668.43 522L606.94 486.5L606.94 415.5zM729.92 486.5L791.4 522L791.4 593L729.92 628.5L668.43 593L668.43 522zM914.38 167L975.87 202.5L975.87 273.5L914.38 309L852.89 273.5L852.89 202.5zM975.87 273.5L1037.36 309L1037.36 380L975.87 415.5L914.38 380L914.38 309zM914.38 380L975.87 415.5L975.87 486.5L914.38 522L852.89 486.5L852.89 415.5zM1037.36 167L1098.85 202.5L1098.85 273.5L1037.36 309L975.87 273.5L975.87 202.5zM1098.85 273.5L1160.34 309L1160.34 380L1098.85 415.5L1037.36 380L1037.36 309zM1098.85 486.5L1160.34 522L1160.34 593L1098.85 628.5L1037.36 593L1037.36 522zM1160.34 167L1221.83 202.5L1221.83 273.5L1160.34 309L1098.85 273.5L1098.85 202.5zM1221.83 486.5L1283.32 522L1283.32 593L1221.83 628.5L1160.34 593L1160.34 522zM1283.32 380L1344.81 415.5L1344.81 486.5L1283.32 522L1221.83 486.5L1221.83 415.5zM1406.3 -46L1467.79 -10.5L1467.79 60.5L1406.3 96L1344.81 60.5L1344.81 -10.5zM1406.3 167L1467.79 202.5L1467.79 273.5L1406.3 309L1344.81 273.5L1344.81 202.5zM1467.79 273.5L1529.28 309L1529.28 380L1467.79 415.5L1406.3 380L1406.3 309z" stroke="rgba(255, 141, 121, 1)" stroke-width="2"></path></g><defs><mask id="SvgjsMask1112"><rect width="1440" height="560" fill="#ffffff"></rect></mask></defs></svg>