<svg xmlns="http://www.w3.org/2000/svg" version="1.1" xmlns:xlink="http://www.w3.org/1999/xlink" xmlns:svgjs="http://svgjs.dev/svgjs" width="1440" height="560" preserveAspectRatio="none" viewBox="0 0 1440 560"><g mask="url(&quot;#SvgjsMask1000&quot;)" fill="none"><rect width="1440" height="560" x="0" y="0" fill="#0e2a47"></rect><path d="M-85.8 406.49L-85.8 406.49" stroke="#132e65" stroke-width="1.5"></path><path d="M-85.8 406.49L52.02 351.33" stroke="#132e65" stroke-width="1.5"></path><path d="M-85.8 406.49L-104.16 560.6" stroke="#132e65" stroke-width="1.5"></path><path d="M-85.8 406.49L42.44 524.16" stroke="#132e65" stroke-width="1.5"></path><path d="M-85.8 406.49L48.3 661.97" stroke="#132e65" stroke-width="1.5"></path><path d="M-85.8 406.49L194.01 516.19" stroke="#132e65" stroke-width="1.5"></path><path d="M-104.16 560.6L-104.16 560.6" stroke="#132e65" stroke-width="1.5"></path><path d="M-104.16 560.6L42.44 524.16" stroke="#132e65" stroke-width="1.5"></path><path d="M52.02 351.33L52.02 351.33" stroke="#132e65" stroke-width="1.5"></path><path d="M52.02 351.33L42.44 524.16" stroke="#132e65" stroke-width="1.5"></path><path d="M42.44 524.16L42.44 524.16" stroke="#132e65" stroke-width="1.5"></path><path d="M42.44 524.16L48.3 661.97" stroke="#132e65" stroke-width="1.5"></path><path d="M42.44 524.16L194.01 516.19" stroke="#132e65" stroke-width="1.5"></path><path d="M48.3 661.97L48.3 661.97" stroke="#132e65" stroke-width="1.5"></path><path d="M48.3 661.97L-104.16 560.6" stroke="#132e65" stroke-width="1.5"></path><path d="M48.3 661.97L233.25 682.85" stroke="#132e65" stroke-width="1.5"></path><path d="M48.3 661.97L194.01 516.19" stroke="#132e65" stroke-width="1.5"></path><path d="M238.24 381.37L238.24 381.37" stroke="#132e65" stroke-width="1.5"></path><path d="M238.24 381.37L357.26 338.34" stroke="#132e65" stroke-width="1.5"></path><path d="M238.24 381.37L194.01 516.19" stroke="#132e65" stroke-width="1.5"></path><path d="M238.24 381.37L52.02 351.33" stroke="#132e65" stroke-width="1.5"></path><path d="M194.01 516.19L194.01 516.19" stroke="#132e65" stroke-width="1.5"></path><path d="M194.01 516.19L233.25 682.85" stroke="#132e65" stroke-width="1.5"></path><path d="M233.25 682.85L233.25 682.85" stroke="#132e65" stroke-width="1.5"></path><path d="M233.25 682.85L345.47 700.29" stroke="#132e65" stroke-width="1.5"></path><path d="M357.26 338.34L357.26 338.34" stroke="#132e65" stroke-width="1.5"></path><path d="M357.26 338.34L407.61 508.56" stroke="#132e65" stroke-width="1.5"></path><path d="M357.26 338.34L194.01 516.19" stroke="#132e65" stroke-width="1.5"></path><path d="M407.61 508.56L407.61 508.56" stroke="#132e65" stroke-width="1.5"></path><path d="M407.61 508.56L494.08 560.25" stroke="#132e65" stroke-width="1.5"></path><path d="M407.61 508.56L345.47 700.29" stroke="#132e65" stroke-width="1.5"></path><path d="M407.61 508.56L238.24 381.37" stroke="#132e65" stroke-width="1.5"></path><path d="M407.61 508.56L194.01 516.19" stroke="#132e65" stroke-width="1.5"></path><path d="M407.61 508.56L648.5 554.32" stroke="#132e65" stroke-width="1.5"></path><path d="M345.47 700.29L345.47 700.29" stroke="#132e65" stroke-width="1.5"></path><path d="M345.47 700.29L494.08 560.25" stroke="#132e65" stroke-width="1.5"></path><path d="M345.47 700.29L562.07 706.57" stroke="#132e65" stroke-width="1.5"></path><path d="M345.47 700.29L194.01 516.19" stroke="#132e65" stroke-width="1.5"></path><path d="M345.47 700.29L48.3 661.97" stroke="#132e65" stroke-width="1.5"></path><path d="M494.08 560.25L494.08 560.25" stroke="#132e65" stroke-width="1.5"></path><path d="M494.08 560.25L648.5 554.32" stroke="#132e65" stroke-width="1.5"></path><path d="M562.07 706.57L562.07 706.57" stroke="#132e65" stroke-width="1.5"></path><path d="M562.07 706.57L707.31 677.77" stroke="#132e65" stroke-width="1.5"></path><path d="M562.07 706.57L494.08 560.25" stroke="#132e65" stroke-width="1.5"></path><path d="M562.07 706.57L648.5 554.32" stroke="#132e65" stroke-width="1.5"></path><path d="M648.5 554.32L648.5 554.32" stroke="#132e65" stroke-width="1.5"></path><path d="M648.5 554.32L707.31 677.77" stroke="#132e65" stroke-width="1.5"></path><path d="M648.5 554.32L789.02 643.77" stroke="#132e65" stroke-width="1.5"></path><path d="M648.5 554.32L843.44 530.56" stroke="#132e65" stroke-width="1.5"></path><path d="M648.5 554.32L790.35 389.78" stroke="#132e65" stroke-width="1.5"></path><path d="M707.31 677.77L707.31 677.77" stroke="#132e65" stroke-width="1.5"></path><path d="M707.31 677.77L789.02 643.77" stroke="#132e65" stroke-width="1.5"></path><path d="M707.31 677.77L843.44 530.56" stroke="#132e65" stroke-width="1.5"></path><path d="M707.31 677.77L494.08 560.25" stroke="#132e65" stroke-width="1.5"></path><path d="M707.31 677.77L992.84 661.81" stroke="#132e65" stroke-width="1.5"></path><path d="M790.95 262.06L790.95 262.06" stroke="#132e65" stroke-width="1.5"></path><path d="M790.95 262.06L790.35 389.78" stroke="#132e65" stroke-width="1.5"></path><path d="M790.95 262.06L995.94 259.7" stroke="#132e65" stroke-width="1.5"></path><path d="M790.95 262.06L973.51 376.84" stroke="#132e65" stroke-width="1.5"></path><path d="M790.95 262.06L843.44 530.56" stroke="#132e65" stroke-width="1.5"></path><path d="M790.35 389.78L790.35 389.78" stroke="#132e65" stroke-width="1.5"></path><path d="M790.35 389.78L843.44 530.56" stroke="#132e65" stroke-width="1.5"></path><path d="M790.35 389.78L973.51 376.84" stroke="#132e65" stroke-width="1.5"></path><path d="M790.35 389.78L968.37 502.09" stroke="#132e65" stroke-width="1.5"></path><path d="M843.44 530.56L843.44 530.56" stroke="#132e65" stroke-width="1.5"></path><path d="M843.44 530.56L789.02 643.77" stroke="#132e65" stroke-width="1.5"></path><path d="M843.44 530.56L968.37 502.09" stroke="#132e65" stroke-width="1.5"></path><path d="M789.02 643.77L789.02 643.77" stroke="#132e65" stroke-width="1.5"></path><path d="M789.02 643.77L992.84 661.81" stroke="#132e65" stroke-width="1.5"></path><path d="M789.02 643.77L968.37 502.09" stroke="#132e65" stroke-width="1.5"></path><path d="M1011.53 -38.61L1011.53 -38.61" stroke="#132e65" stroke-width="1.5"></path><path d="M1011.53 -38.61L1091.46 -62.72" stroke="#132e65" stroke-width="1.5"></path><path d="M1011.53 -38.61L1152.23 93.18" stroke="#132e65" stroke-width="1.5"></path><path d="M1011.53 -38.61L1304.26 -73.92" stroke="#132e65" stroke-width="1.5"></path><path d="M1011.53 -38.61L995.94 259.7" stroke="#132e65" stroke-width="1.5"></path><path d="M1011.53 -38.61L1147.54 238.68" stroke="#132e65" stroke-width="1.5"></path><path d="M995.94 259.7L995.94 259.7" stroke="#132e65" stroke-width="1.5"></path><path d="M995.94 259.7L973.51 376.84" stroke="#132e65" stroke-width="1.5"></path><path d="M995.94 259.7L1147.54 238.68" stroke="#132e65" stroke-width="1.5"></path><path d="M973.51 376.84L973.51 376.84" stroke="#132e65" stroke-width="1.5"></path><path d="M973.51 376.84L968.37 502.09" stroke="#132e65" stroke-width="1.5"></path><path d="M973.51 376.84L1137.29 369.27" stroke="#132e65" stroke-width="1.5"></path><path d="M973.51 376.84L843.44 530.56" stroke="#132e65" stroke-width="1.5"></path><path d="M968.37 502.09L968.37 502.09" stroke="#132e65" stroke-width="1.5"></path><path d="M968.37 502.09L992.84 661.81" stroke="#132e65" stroke-width="1.5"></path><path d="M968.37 502.09L1157.22 532.81" stroke="#132e65" stroke-width="1.5"></path><path d="M992.84 661.81L992.84 661.81" stroke="#132e65" stroke-width="1.5"></path><path d="M992.84 661.81L1097.87 674.37" stroke="#132e65" stroke-width="1.5"></path><path d="M992.84 661.81L843.44 530.56" stroke="#132e65" stroke-width="1.5"></path><path d="M992.84 661.81L1157.22 532.81" stroke="#132e65" stroke-width="1.5"></path><path d="M992.84 661.81L1272.77 710.83" stroke="#132e65" stroke-width="1.5"></path><path d="M1091.46 -62.72L1091.46 -62.72" stroke="#132e65" stroke-width="1.5"></path><path d="M1091.46 -62.72L1152.23 93.18" stroke="#132e65" stroke-width="1.5"></path><path d="M1152.23 93.18L1152.23 93.18" stroke="#132e65" stroke-width="1.5"></path><path d="M1152.23 93.18L1147.54 238.68" stroke="#132e65" stroke-width="1.5"></path><path d="M1152.23 93.18L1243.42 220.22" stroke="#132e65" stroke-width="1.5"></path><path d="M1147.54 238.68L1147.54 238.68" stroke="#132e65" stroke-width="1.5"></path><path d="M1147.54 238.68L1243.42 220.22" stroke="#132e65" stroke-width="1.5"></path><path d="M1147.54 238.68L1137.29 369.27" stroke="#132e65" stroke-width="1.5"></path><path d="M1147.54 238.68L1272.26 372.82" stroke="#132e65" stroke-width="1.5"></path><path d="M1137.29 369.27L1137.29 369.27" stroke="#132e65" stroke-width="1.5"></path><path d="M1157.22 532.81L1157.22 532.81" stroke="#132e65" stroke-width="1.5"></path><path d="M1157.22 532.81L1307.97 512.16" stroke="#132e65" stroke-width="1.5"></path><path d="M1157.22 532.81L1097.87 674.37" stroke="#132e65" stroke-width="1.5"></path><path d="M1097.87 674.37L1097.87 674.37" stroke="#132e65" stroke-width="1.5"></path><path d="M1304.26 -73.92L1304.26 -73.92" stroke="#132e65" stroke-width="1.5"></path><path d="M1304.26 -73.92L1395.31 -42.37" stroke="#132e65" stroke-width="1.5"></path><path d="M1304.26 -73.92L1091.46 -62.72" stroke="#132e65" stroke-width="1.5"></path><path d="M1304.26 -73.92L1152.23 93.18" stroke="#132e65" stroke-width="1.5"></path><path d="M1304.26 -73.92L1243.42 220.22" stroke="#132e65" stroke-width="1.5"></path><path d="M1304.26 -73.92L1418.71 228.48" stroke="#132e65" stroke-width="1.5"></path><path d="M1243.42 220.22L1243.42 220.22" stroke="#132e65" stroke-width="1.5"></path><path d="M1243.42 220.22L1272.26 372.82" stroke="#132e65" stroke-width="1.5"></path><path d="M1243.42 220.22L1418.71 228.48" stroke="#132e65" stroke-width="1.5"></path><path d="M1243.42 220.22L1137.29 369.27" stroke="#132e65" stroke-width="1.5"></path><path d="M1243.42 220.22L1406.54 397.98" stroke="#132e65" stroke-width="1.5"></path><path d="M1272.26 372.82L1272.26 372.82" stroke="#132e65" stroke-width="1.5"></path><path d="M1272.26 372.82L1137.29 369.27" stroke="#132e65" stroke-width="1.5"></path><path d="M1272.26 372.82L1406.54 397.98" stroke="#132e65" stroke-width="1.5"></path><path d="M1272.26 372.82L1307.97 512.16" stroke="#132e65" stroke-width="1.5"></path><path d="M1272.26 372.82L1157.22 532.81" stroke="#132e65" stroke-width="1.5"></path><path d="M1307.97 512.16L1307.97 512.16" stroke="#132e65" stroke-width="1.5"></path><path d="M1307.97 512.16L1406.54 397.98" stroke="#132e65" stroke-width="1.5"></path><path d="M1307.97 512.16L1272.77 710.83" stroke="#132e65" stroke-width="1.5"></path><path d="M1307.97 512.16L1137.29 369.27" stroke="#132e65" stroke-width="1.5"></path><path d="M1307.97 512.16L1561.91 558.31" stroke="#132e65" stroke-width="1.5"></path><path d="M1272.77 710.83L1272.77 710.83" stroke="#132e65" stroke-width="1.5"></path><path d="M1272.77 710.83L1097.87 674.37" stroke="#132e65" stroke-width="1.5"></path><path d="M1272.77 710.83L1157.22 532.81" stroke="#132e65" stroke-width="1.5"></path><path d="M1395.31 -42.37L1395.31 -42.37" stroke="#132e65" stroke-width="1.5"></path><path d="M1395.31 -42.37L1603.94 60.71" stroke="#132e65" stroke-width="1.5"></path><path d="M1395.31 -42.37L1418.71 228.48" stroke="#132e65" stroke-width="1.5"></path><path d="M1395.31 -42.37L1152.23 93.18" stroke="#132e65" stroke-width="1.5"></path><path d="M1395.31 -42.37L1567.05 203.87" stroke="#132e65" stroke-width="1.5"></path><path d="M1395.31 -42.37L1243.42 220.22" stroke="#132e65" stroke-width="1.5"></path><path d="M1418.71 228.48L1418.71 228.48" stroke="#132e65" stroke-width="1.5"></path><path d="M1418.71 228.48L1567.05 203.87" stroke="#132e65" stroke-width="1.5"></path><path d="M1418.71 228.48L1406.54 397.98" stroke="#132e65" stroke-width="1.5"></path><path d="M1418.71 228.48L1272.26 372.82" stroke="#132e65" stroke-width="1.5"></path><path d="M1406.54 397.98L1406.54 397.98" stroke="#132e65" stroke-width="1.5"></path><path d="M1406.54 397.98L1585.9 350.42" stroke="#132e65" stroke-width="1.5"></path><path d="M1603.94 60.71L1603.94 60.71" stroke="#132e65" stroke-width="1.5"></path><path d="M1603.94 60.71L1567.05 203.87" stroke="#132e65" stroke-width="1.5"></path><path d="M1567.05 203.87L1567.05 203.87" stroke="#132e65" stroke-width="1.5"></path><path d="M1567.05 203.87L1585.9 350.42" stroke="#132e65" stroke-width="1.5"></path><path d="M1585.9 350.42L1585.9 350.42" stroke="#132e65" stroke-width="1.5"></path><path d="M1585.9 350.42L1418.71 228.48" stroke="#132e65" stroke-width="1.5"></path><path d="M1585.9 350.42L1561.91 558.31" stroke="#132e65" stroke-width="1.5"></path><path d="M1585.9 350.42L1603.94 60.71" stroke="#132e65" stroke-width="1.5"></path><path d="M1585.9 350.42L1272.26 372.82" stroke="#132e65" stroke-width="1.5"></path><path d="M1561.91 558.31L1561.91 558.31" stroke="#132e65" stroke-width="1.5"></path><path d="M1561.91 558.31L1607.31 702.41" stroke="#132e65" stroke-width="1.5"></path><path d="M1561.91 558.31L1406.54 397.98" stroke="#132e65" stroke-width="1.5"></path><path d="M1561.91 558.31L1272.77 710.83" stroke="#132e65" stroke-width="1.5"></path><path d="M1607.31 702.41L1607.31 702.41" stroke="#132e65" stroke-width="1.5"></path><circle r="5" cx="-85.8" cy="406.49" fill="#132e65"></circle><circle r="5" cx="-104.16" cy="560.6" fill="#132e65"></circle><circle r="5" cx="52.02" cy="351.33" fill="#132e65"></circle><circle r="5" cx="42.44" cy="524.16" fill="#132e65"></circle><circle r="5" cx="48.3" cy="661.97" fill="#132e65"></circle><circle r="5" cx="238.24" cy="381.37" fill="#132e65"></circle><circle r="5" cx="194.01" cy="516.19" fill="#132e65"></circle><circle r="5" cx="233.25" cy="682.85" fill="#132e65"></circle><circle r="5" cx="357.26" cy="338.34" fill="#132e65"></circle><circle r="5" cx="407.61" cy="508.56" fill="#132e65"></circle><circle r="5" cx="345.47" cy="700.29" fill="#132e65"></circle><circle r="5" cx="494.08" cy="560.25" fill="#132e65"></circle><circle r="5" cx="562.07" cy="706.57" fill="#132e65"></circle><circle r="5" cx="648.5" cy="554.32" fill="#132e65"></circle><circle r="5" cx="707.31" cy="677.77" fill="#132e65"></circle><circle r="5" cx="790.95" cy="262.06" fill="#132e65"></circle><circle r="5" cx="790.35" cy="389.78" fill="#132e65"></circle><circle r="5" cx="843.44" cy="530.56" fill="#132e65"></circle><circle r="5" cx="789.02" cy="643.77" fill="#132e65"></circle><circle r="5" cx="1011.53" cy="-38.61" fill="#132e65"></circle><circle r="5" cx="995.94" cy="259.7" fill="#132e65"></circle><circle r="5" cx="973.51" cy="376.84" fill="#132e65"></circle><circle r="5" cx="968.37" cy="502.09" fill="#132e65"></circle><circle r="5" cx="992.84" cy="661.81" fill="#132e65"></circle><circle r="5" cx="1091.46" cy="-62.72" fill="#132e65"></circle><circle r="5" cx="1152.23" cy="93.18" fill="#132e65"></circle><circle r="5" cx="1147.54" cy="238.68" fill="#132e65"></circle><circle r="5" cx="1137.29" cy="369.27" fill="#132e65"></circle><circle r="5" cx="1157.22" cy="532.81" fill="#132e65"></circle><circle r="5" cx="1097.87" cy="674.37" fill="#132e65"></circle><circle r="5" cx="1304.26" cy="-73.92" fill="#132e65"></circle><circle r="5" cx="1243.42" cy="220.22" fill="#132e65"></circle><circle r="5" cx="1272.26" cy="372.82" fill="#132e65"></circle><circle r="5" cx="1307.97" cy="512.16" fill="#132e65"></circle><circle r="5" cx="1272.77" cy="710.83" fill="#132e65"></circle><circle r="5" cx="1395.31" cy="-42.37" fill="#132e65"></circle><circle r="5" cx="1418.71" cy="228.48" fill="#132e65"></circle><circle r="5" cx="1406.54" cy="397.98" fill="#132e65"></circle><circle r="5" cx="1603.94" cy="60.71" fill="#132e65"></circle><circle r="5" cx="1567.05" cy="203.87" fill="#132e65"></circle><circle r="5" cx="1585.9" cy="350.42" fill="#132e65"></circle><circle r="5" cx="1561.91" cy="558.31" fill="#132e65"></circle><circle r="5" cx="1607.31" cy="702.41" fill="#132e65"></circle><path d="M-89.72 503.04L-89.72 503.04" stroke="hsl(228.5, 77.2%, 51.5%)" stroke-width="1.5"></path><path d="M-89.72 503.04L-100.79 689.54" stroke="hsl(228.5, 77.2%, 51.5%)" stroke-width="1.5"></path><path d="M-89.72 503.04L100 532.61" stroke="hsl(228.5, 77.2%, 51.5%)" stroke-width="1.5"></path><path d="M-89.72 503.04L84.55 694.2" stroke="hsl(228.5, 77.2%, 51.5%)" stroke-width="1.5"></path><path d="M-89.72 503.04L212.5 560.47" stroke="hsl(228.5, 77.2%, 51.5%)" stroke-width="1.5"></path><path d="M696.36 487.53L696.36 487.53" stroke="hsl(228.5, 77.2%, 51.5%)" stroke-width="1.5"></path><path d="M696.36 487.53L675.1 389.35" stroke="hsl(228.5, 77.2%, 51.5%)" stroke-width="1.5"></path><path d="M696.36 487.53L850.29 509.51" stroke="hsl(228.5, 77.2%, 51.5%)" stroke-width="1.5"></path><path d="M696.36 487.53L838.17 399.76" stroke="hsl(228.5, 77.2%, 51.5%)" stroke-width="1.5"></path><path d="M847.97 705.16L847.97 705.16" stroke="hsl(228.5, 77.2%, 51.5%)" stroke-width="1.5"></path><path d="M847.97 705.16L951.06 689.71" stroke="hsl(228.5, 77.2%, 51.5%)" stroke-width="1.5"></path><path d="M847.97 705.16L668.63 709.41" stroke="hsl(228.5, 77.2%, 51.5%)" stroke-width="1.5"></path><path d="M847.97 705.16L850.29 509.51" stroke="hsl(228.5, 77.2%, 51.5%)" stroke-width="1.5"></path><path d="M951.06 689.71L951.06 689.71" stroke="hsl(228.5, 77.2%, 51.5%)" stroke-width="1.5"></path><path d="M951.06 689.71L1002.42 511.92" stroke="hsl(228.5, 77.2%, 51.5%)" stroke-width="1.5"></path><path d="M951.06 689.71L850.29 509.51" stroke="hsl(228.5, 77.2%, 51.5%)" stroke-width="1.5"></path><path d="M951.06 689.71L1158.33 504.49" stroke="hsl(228.5, 77.2%, 51.5%)" stroke-width="1.5"></path><path d="M951.06 689.71L668.63 709.41" stroke="hsl(228.5, 77.2%, 51.5%)" stroke-width="1.5"></path><path d="M951.06 689.71L838.17 399.76" stroke="hsl(228.5, 77.2%, 51.5%)" stroke-width="1.5"></path><path d="M1100.15 245.15L1100.15 245.15" stroke="hsl(228.5, 77.2%, 51.5%)" stroke-width="1.5"></path><path d="M1100.15 245.15L979.81 252.99" stroke="hsl(228.5, 77.2%, 51.5%)" stroke-width="1.5"></path><path d="M1100.15 245.15L1149.59 361.36" stroke="hsl(228.5, 77.2%, 51.5%)" stroke-width="1.5"></path><path d="M1100.15 245.15L961.11 337.84" stroke="hsl(228.5, 77.2%, 51.5%)" stroke-width="1.5"></path><path d="M1100.15 245.15L1265.31 216.19" stroke="hsl(228.5, 77.2%, 51.5%)" stroke-width="1.5"></path><path d="M1100.15 245.15L1279.3 94.66" stroke="hsl(228.5, 77.2%, 51.5%)" stroke-width="1.5"></path><path d="M1100.15 245.15L1279.72 401.15" stroke="hsl(228.5, 77.2%, 51.5%)" stroke-width="1.5"></path><path d="M1605.65 -107.1L1605.65 -107.1" stroke="hsl(228.5, 77.2%, 51.5%)" stroke-width="1.5"></path><path d="M1605.65 -107.1L1444.37 -111.91" stroke="hsl(228.5, 77.2%, 51.5%)" stroke-width="1.5"></path><path d="M1605.65 -107.1L1611.74 67" stroke="hsl(228.5, 77.2%, 51.5%)" stroke-width="1.5"></path><path d="M1605.65 -107.1L1459.88 94.51" stroke="hsl(228.5, 77.2%, 51.5%)" stroke-width="1.5"></path><path d="M1605.65 -107.1L1290.27 -84.71" stroke="hsl(228.5, 77.2%, 51.5%)" stroke-width="1.5"></path><path d="M1605.65 -107.1L1564.38 219.39" stroke="hsl(228.5, 77.2%, 51.5%)" stroke-width="1.5"></path><path d="M-100.79 689.54L-100.79 689.54" stroke="hsl(228.5, 77.2%, 51.5%)" stroke-width="1.5"></path><path d="M-100.79 689.54L84.55 694.2" stroke="hsl(228.5, 77.2%, 51.5%)" stroke-width="1.5"></path><path d="M100 532.61L100 532.61" stroke="hsl(228.5, 77.2%, 51.5%)" stroke-width="1.5"></path><path d="M100 532.61L212.5 560.47" stroke="hsl(228.5, 77.2%, 51.5%)" stroke-width="1.5"></path><path d="M100 532.61L84.55 694.2" stroke="hsl(228.5, 77.2%, 51.5%)" stroke-width="1.5"></path><path d="M100 532.61L191.94 681.35" stroke="hsl(228.5, 77.2%, 51.5%)" stroke-width="1.5"></path><path d="M100 532.61L-100.79 689.54" stroke="hsl(228.5, 77.2%, 51.5%)" stroke-width="1.5"></path><path d="M84.55 694.2L84.55 694.2" stroke="hsl(228.5, 77.2%, 51.5%)" stroke-width="1.5"></path><path d="M84.55 694.2L191.94 681.35" stroke="hsl(228.5, 77.2%, 51.5%)" stroke-width="1.5"></path><path d="M84.55 694.2L212.5 560.47" stroke="hsl(228.5, 77.2%, 51.5%)" stroke-width="1.5"></path><path d="M212.5 560.47L212.5 560.47" stroke="hsl(228.5, 77.2%, 51.5%)" stroke-width="1.5"></path><path d="M212.5 560.47L191.94 681.35" stroke="hsl(228.5, 77.2%, 51.5%)" stroke-width="1.5"></path><path d="M191.94 681.35L191.94 681.35" stroke="hsl(228.5, 77.2%, 51.5%)" stroke-width="1.5"></path><path d="M191.94 681.35L402.58 653.46" stroke="hsl(228.5, 77.2%, 51.5%)" stroke-width="1.5"></path><path d="M191.94 681.35L400.26 511.7" stroke="hsl(228.5, 77.2%, 51.5%)" stroke-width="1.5"></path><path d="M191.94 681.35L-100.79 689.54" stroke="hsl(228.5, 77.2%, 51.5%)" stroke-width="1.5"></path><path d="M400.26 511.7L400.26 511.7" stroke="hsl(228.5, 77.2%, 51.5%)" stroke-width="1.5"></path><path d="M400.26 511.7L501.09 550.06" stroke="hsl(228.5, 77.2%, 51.5%)" stroke-width="1.5"></path><path d="M400.26 511.7L402.58 653.46" stroke="hsl(228.5, 77.2%, 51.5%)" stroke-width="1.5"></path><path d="M402.58 653.46L402.58 653.46" stroke="hsl(228.5, 77.2%, 51.5%)" stroke-width="1.5"></path><path d="M402.58 653.46L523.14 670.12" stroke="hsl(228.5, 77.2%, 51.5%)" stroke-width="1.5"></path><path d="M402.58 653.46L501.09 550.06" stroke="hsl(228.5, 77.2%, 51.5%)" stroke-width="1.5"></path><path d="M402.58 653.46L212.5 560.47" stroke="hsl(228.5, 77.2%, 51.5%)" stroke-width="1.5"></path><path d="M402.58 653.46L668.63 709.41" stroke="hsl(228.5, 77.2%, 51.5%)" stroke-width="1.5"></path><path d="M501.09 550.06L501.09 550.06" stroke="hsl(228.5, 77.2%, 51.5%)" stroke-width="1.5"></path><path d="M501.09 550.06L523.14 670.12" stroke="hsl(228.5, 77.2%, 51.5%)" stroke-width="1.5"></path><path d="M523.14 670.12L523.14 670.12" stroke="hsl(228.5, 77.2%, 51.5%)" stroke-width="1.5"></path><path d="M523.14 670.12L668.63 709.41" stroke="hsl(228.5, 77.2%, 51.5%)" stroke-width="1.5"></path><path d="M675.1 389.35L675.1 389.35" stroke="hsl(228.5, 77.2%, 51.5%)" stroke-width="1.5"></path><path d="M675.1 389.35L838.17 399.76" stroke="hsl(228.5, 77.2%, 51.5%)" stroke-width="1.5"></path><path d="M668.63 709.41L668.63 709.41" stroke="hsl(228.5, 77.2%, 51.5%)" stroke-width="1.5"></path><path d="M668.63 709.41L696.36 487.53" stroke="hsl(228.5, 77.2%, 51.5%)" stroke-width="1.5"></path><path d="M668.63 709.41L501.09 550.06" stroke="hsl(228.5, 77.2%, 51.5%)" stroke-width="1.5"></path><path d="M668.63 709.41L850.29 509.51" stroke="hsl(228.5, 77.2%, 51.5%)" stroke-width="1.5"></path><path d="M838.17 399.76L838.17 399.76" stroke="hsl(228.5, 77.2%, 51.5%)" stroke-width="1.5"></path><path d="M838.17 399.76L850.29 509.51" stroke="hsl(228.5, 77.2%, 51.5%)" stroke-width="1.5"></path><path d="M838.17 399.76L961.11 337.84" stroke="hsl(228.5, 77.2%, 51.5%)" stroke-width="1.5"></path><path d="M838.17 399.76L1002.42 511.92" stroke="hsl(228.5, 77.2%, 51.5%)" stroke-width="1.5"></path><path d="M850.29 509.51L850.29 509.51" stroke="hsl(228.5, 77.2%, 51.5%)" stroke-width="1.5"></path><path d="M850.29 509.51L1002.42 511.92" stroke="hsl(228.5, 77.2%, 51.5%)" stroke-width="1.5"></path><path d="M979.81 252.99L979.81 252.99" stroke="hsl(228.5, 77.2%, 51.5%)" stroke-width="1.5"></path><path d="M979.81 252.99L961.11 337.84" stroke="hsl(228.5, 77.2%, 51.5%)" stroke-width="1.5"></path><path d="M961.11 337.84L961.11 337.84" stroke="hsl(228.5, 77.2%, 51.5%)" stroke-width="1.5"></path><path d="M961.11 337.84L1002.42 511.92" stroke="hsl(228.5, 77.2%, 51.5%)" stroke-width="1.5"></path><path d="M961.11 337.84L1149.59 361.36" stroke="hsl(228.5, 77.2%, 51.5%)" stroke-width="1.5"></path><path d="M961.11 337.84L850.29 509.51" stroke="hsl(228.5, 77.2%, 51.5%)" stroke-width="1.5"></path><path d="M1002.42 511.92L1002.42 511.92" stroke="hsl(228.5, 77.2%, 51.5%)" stroke-width="1.5"></path><path d="M1149.59 361.36L1149.59 361.36" stroke="hsl(228.5, 77.2%, 51.5%)" stroke-width="1.5"></path><path d="M1149.59 361.36L1279.72 401.15" stroke="hsl(228.5, 77.2%, 51.5%)" stroke-width="1.5"></path><path d="M1149.59 361.36L1158.33 504.49" stroke="hsl(228.5, 77.2%, 51.5%)" stroke-width="1.5"></path><path d="M1149.59 361.36L1265.31 216.19" stroke="hsl(228.5, 77.2%, 51.5%)" stroke-width="1.5"></path><path d="M1149.59 361.36L1238.01 527.61" stroke="hsl(228.5, 77.2%, 51.5%)" stroke-width="1.5"></path><path d="M1158.33 504.49L1158.33 504.49" stroke="hsl(228.5, 77.2%, 51.5%)" stroke-width="1.5"></path><path d="M1158.33 504.49L1238.01 527.61" stroke="hsl(228.5, 77.2%, 51.5%)" stroke-width="1.5"></path><path d="M1158.33 504.49L1002.42 511.92" stroke="hsl(228.5, 77.2%, 51.5%)" stroke-width="1.5"></path><path d="M1290.27 -84.71L1290.27 -84.71" stroke="hsl(228.5, 77.2%, 51.5%)" stroke-width="1.5"></path><path d="M1290.27 -84.71L1444.37 -111.91" stroke="hsl(228.5, 77.2%, 51.5%)" stroke-width="1.5"></path><path d="M1290.27 -84.71L1279.3 94.66" stroke="hsl(228.5, 77.2%, 51.5%)" stroke-width="1.5"></path><path d="M1290.27 -84.71L1459.88 94.51" stroke="hsl(228.5, 77.2%, 51.5%)" stroke-width="1.5"></path><path d="M1290.27 -84.71L1265.31 216.19" stroke="hsl(228.5, 77.2%, 51.5%)" stroke-width="1.5"></path><path d="M1279.3 94.66L1279.3 94.66" stroke="hsl(228.5, 77.2%, 51.5%)" stroke-width="1.5"></path><path d="M1279.3 94.66L1265.31 216.19" stroke="hsl(228.5, 77.2%, 51.5%)" stroke-width="1.5"></path><path d="M1279.3 94.66L1459.88 94.51" stroke="hsl(228.5, 77.2%, 51.5%)" stroke-width="1.5"></path><path d="M1279.3 94.66L1460.83 199.02" stroke="hsl(228.5, 77.2%, 51.5%)" stroke-width="1.5"></path><path d="M1265.31 216.19L1265.31 216.19" stroke="hsl(228.5, 77.2%, 51.5%)" stroke-width="1.5"></path><path d="M1265.31 216.19L1279.72 401.15" stroke="hsl(228.5, 77.2%, 51.5%)" stroke-width="1.5"></path><path d="M1265.31 216.19L1460.83 199.02" stroke="hsl(228.5, 77.2%, 51.5%)" stroke-width="1.5"></path><path d="M1279.72 401.15L1279.72 401.15" stroke="hsl(228.5, 77.2%, 51.5%)" stroke-width="1.5"></path><path d="M1279.72 401.15L1238.01 527.61" stroke="hsl(228.5, 77.2%, 51.5%)" stroke-width="1.5"></path><path d="M1279.72 401.15L1158.33 504.49" stroke="hsl(228.5, 77.2%, 51.5%)" stroke-width="1.5"></path><path d="M1238.01 527.61L1238.01 527.61" stroke="hsl(228.5, 77.2%, 51.5%)" stroke-width="1.5"></path><path d="M1238.01 527.61L1270.33 641.73" stroke="hsl(228.5, 77.2%, 51.5%)" stroke-width="1.5"></path><path d="M1238.01 527.61L1417.01 561.63" stroke="hsl(228.5, 77.2%, 51.5%)" stroke-width="1.5"></path><path d="M1270.33 641.73L1270.33 641.73" stroke="hsl(228.5, 77.2%, 51.5%)" stroke-width="1.5"></path><path d="M1270.33 641.73L1393.82 655.12" stroke="hsl(228.5, 77.2%, 51.5%)" stroke-width="1.5"></path><path d="M1270.33 641.73L1417.01 561.63" stroke="hsl(228.5, 77.2%, 51.5%)" stroke-width="1.5"></path><path d="M1444.37 -111.91L1444.37 -111.91" stroke="hsl(228.5, 77.2%, 51.5%)" stroke-width="1.5"></path><path d="M1444.37 -111.91L1459.88 94.51" stroke="hsl(228.5, 77.2%, 51.5%)" stroke-width="1.5"></path><path d="M1444.37 -111.91L1611.74 67" stroke="hsl(228.5, 77.2%, 51.5%)" stroke-width="1.5"></path><path d="M1444.37 -111.91L1279.3 94.66" stroke="hsl(228.5, 77.2%, 51.5%)" stroke-width="1.5"></path><path d="M1444.37 -111.91L1460.83 199.02" stroke="hsl(228.5, 77.2%, 51.5%)" stroke-width="1.5"></path><path d="M1459.88 94.51L1459.88 94.51" stroke="hsl(228.5, 77.2%, 51.5%)" stroke-width="1.5"></path><path d="M1459.88 94.51L1460.83 199.02" stroke="hsl(228.5, 77.2%, 51.5%)" stroke-width="1.5"></path><path d="M1459.88 94.51L1611.74 67" stroke="hsl(228.5, 77.2%, 51.5%)" stroke-width="1.5"></path><path d="M1460.83 199.02L1460.83 199.02" stroke="hsl(228.5, 77.2%, 51.5%)" stroke-width="1.5"></path><path d="M1440.28 344.86L1440.28 344.86" stroke="hsl(228.5, 77.2%, 51.5%)" stroke-width="1.5"></path><path d="M1440.28 344.86L1543.18 352.25" stroke="hsl(228.5, 77.2%, 51.5%)" stroke-width="1.5"></path><path d="M1440.28 344.86L1460.83 199.02" stroke="hsl(228.5, 77.2%, 51.5%)" stroke-width="1.5"></path><path d="M1417.01 561.63L1417.01 561.63" stroke="hsl(228.5, 77.2%, 51.5%)" stroke-width="1.5"></path><path d="M1417.01 561.63L1393.82 655.12" stroke="hsl(228.5, 77.2%, 51.5%)" stroke-width="1.5"></path><path d="M1417.01 561.63L1573.9 500.28" stroke="hsl(228.5, 77.2%, 51.5%)" stroke-width="1.5"></path><path d="M1393.82 655.12L1393.82 655.12" stroke="hsl(228.5, 77.2%, 51.5%)" stroke-width="1.5"></path><path d="M1393.82 655.12L1569.48 685.47" stroke="hsl(228.5, 77.2%, 51.5%)" stroke-width="1.5"></path><path d="M1393.82 655.12L1238.01 527.61" stroke="hsl(228.5, 77.2%, 51.5%)" stroke-width="1.5"></path><path d="M1611.74 67L1611.74 67" stroke="hsl(228.5, 77.2%, 51.5%)" stroke-width="1.5"></path><path d="M1611.74 67L1564.38 219.39" stroke="hsl(228.5, 77.2%, 51.5%)" stroke-width="1.5"></path><path d="M1564.38 219.39L1564.38 219.39" stroke="hsl(228.5, 77.2%, 51.5%)" stroke-width="1.5"></path><path d="M1564.38 219.39L1460.83 199.02" stroke="hsl(228.5, 77.2%, 51.5%)" stroke-width="1.5"></path><path d="M1564.38 219.39L1543.18 352.25" stroke="hsl(228.5, 77.2%, 51.5%)" stroke-width="1.5"></path><path d="M1543.18 352.25L1543.18 352.25" stroke="hsl(228.5, 77.2%, 51.5%)" stroke-width="1.5"></path><path d="M1543.18 352.25L1573.9 500.28" stroke="hsl(228.5, 77.2%, 51.5%)" stroke-width="1.5"></path><path d="M1573.9 500.28L1573.9 500.28" stroke="hsl(228.5, 77.2%, 51.5%)" stroke-width="1.5"></path><path d="M1573.9 500.28L1569.48 685.47" stroke="hsl(228.5, 77.2%, 51.5%)" stroke-width="1.5"></path><path d="M1573.9 500.28L1440.28 344.86" stroke="hsl(228.5, 77.2%, 51.5%)" stroke-width="1.5"></path><path d="M1573.9 500.28L1393.82 655.12" stroke="hsl(228.5, 77.2%, 51.5%)" stroke-width="1.5"></path><path d="M1573.9 500.28L1564.38 219.39" stroke="hsl(228.5, 77.2%, 51.5%)" stroke-width="1.5"></path><path d="M1569.48 685.47L1569.48 685.47" stroke="hsl(228.5, 77.2%, 51.5%)" stroke-width="1.5"></path><path d="M1569.48 685.47L1417.01 561.63" stroke="hsl(228.5, 77.2%, 51.5%)" stroke-width="1.5"></path><circle r="25" cx="-89.72" cy="503.04" fill="url(&quot;#SvgjsRadialGradient1001&quot;)"></circle><circle r="25" cx="696.36" cy="487.53" fill="url(&quot;#SvgjsRadialGradient1001&quot;)"></circle><circle r="25" cx="847.97" cy="705.16" fill="url(&quot;#SvgjsRadialGradient1001&quot;)"></circle><circle r="25" cx="951.06" cy="689.71" fill="url(&quot;#SvgjsRadialGradient1001&quot;)"></circle><circle r="25" cx="1100.15" cy="245.15" fill="url(&quot;#SvgjsRadialGradient1001&quot;)"></circle><circle r="25" cx="1605.65" cy="-107.1" fill="url(&quot;#SvgjsRadialGradient1001&quot;)"></circle><circle r="5" cx="-100.79" cy="689.54" fill="#8b9ad9"></circle><circle r="5" cx="100" cy="532.61" fill="#8b9ad9"></circle><circle r="5" cx="84.55" cy="694.2" fill="#8b9ad9"></circle><circle r="5" cx="212.5" cy="560.47" fill="#8b9ad9"></circle><circle r="5" cx="191.94" cy="681.35" fill="#8b9ad9"></circle><circle r="5" cx="400.26" cy="511.7" fill="#8b9ad9"></circle><circle r="5" cx="402.58" cy="653.46" fill="#8b9ad9"></circle><circle r="5" cx="501.09" cy="550.06" fill="#8b9ad9"></circle><circle r="5" cx="523.14" cy="670.12" fill="#8b9ad9"></circle><circle r="5" cx="675.1" cy="389.35" fill="#8b9ad9"></circle><circle r="5" cx="668.63" cy="709.41" fill="#8b9ad9"></circle><circle r="5" cx="838.17" cy="399.76" fill="#8b9ad9"></circle><circle r="5" cx="850.29" cy="509.51" fill="#8b9ad9"></circle><circle r="5" cx="979.81" cy="252.99" fill="#8b9ad9"></circle><circle r="5" cx="961.11" cy="337.84" fill="#8b9ad9"></circle><circle r="5" cx="1002.42" cy="511.92" fill="#8b9ad9"></circle><circle r="5" cx="1149.59" cy="361.36" fill="#8b9ad9"></circle><circle r="5" cx="1158.33" cy="504.49" fill="#8b9ad9"></circle><circle r="5" cx="1290.27" cy="-84.71" fill="#8b9ad9"></circle><circle r="5" cx="1279.3" cy="94.66" fill="#8b9ad9"></circle><circle r="5" cx="1265.31" cy="216.19" fill="#8b9ad9"></circle><circle r="5" cx="1279.72" cy="401.15" fill="#8b9ad9"></circle><circle r="5" cx="1238.01" cy="527.61" fill="#8b9ad9"></circle><circle r="5" cx="1270.33" cy="641.73" fill="#8b9ad9"></circle><circle r="5" cx="1444.37" cy="-111.91" fill="#8b9ad9"></circle><circle r="5" cx="1459.88" cy="94.51" fill="#8b9ad9"></circle><circle r="5" cx="1460.83" cy="199.02" fill="#8b9ad9"></circle><circle r="5" cx="1440.28" cy="344.86" fill="#8b9ad9"></circle><circle r="5" cx="1417.01" cy="561.63" fill="#8b9ad9"></circle><circle r="5" cx="1393.82" cy="655.12" fill="#8b9ad9"></circle><circle r="5" cx="1611.74" cy="67" fill="#8b9ad9"></circle><circle r="5" cx="1564.38" cy="219.39" fill="#8b9ad9"></circle><circle r="5" cx="1543.18" cy="352.25" fill="#8b9ad9"></circle><circle r="5" cx="1573.9" cy="500.28" fill="#8b9ad9"></circle><circle r="5" cx="1569.48" cy="685.47" fill="#8b9ad9"></circle></g><defs><mask id="SvgjsMask1000"><rect width="1440" height="560" fill="#ffffff"></rect></mask><radialGradient id="SvgjsRadialGradient1001"><stop stop-color="#ffffff" offset="0.1"></stop><stop stop-color="#1735b3" offset="0.2"></stop><stop stop-color="rgba(23, 53, 179, 0)" offset="1"></stop></radialGradient></defs></svg>