<svg xmlns="http://www.w3.org/2000/svg" version="1.1" xmlns:xlink="http://www.w3.org/1999/xlink" xmlns:svgjs="http://svgjs.dev/svgjs" width="1440" height="250" preserveAspectRatio="none" viewBox="0 0 1440 250"><g mask="url(&quot;#SvgjsMask1020&quot;)" fill="none"><rect width="1440" height="250" x="0" y="0" fill="rgba(255, 255, 255, 1)"></rect><path d="M37 250L287 0L387.5 0L137.5 250z" fill="url(&quot;#SvgjsLinearGradient1021&quot;)"></path><path d="M255.60000000000002 250L505.6 0L729.1 0L479.1 250z" fill="url(&quot;#SvgjsLinearGradient1021&quot;)"></path><path d="M497.20000000000005 250L747.2 0L906.2 0L656.2 250z" fill="url(&quot;#SvgjsLinearGradient1021&quot;)"></path><path d="M753.8000000000001 250L1003.8000000000001 0L1141.8000000000002 0L891.8000000000001 250z" fill="url(&quot;#SvgjsLinearGradient1021&quot;)"></path><path d="M1401 250L1151 0L896 0L1146 250z" fill="url(&quot;#SvgjsLinearGradient1022&quot;)"></path><path d="M1168.4 250L918.4000000000001 0L610.9000000000001 0L860.9000000000001 250z" fill="url(&quot;#SvgjsLinearGradient1022&quot;)"></path><path d="M944.8 250L694.8 0L423.29999999999995 0L673.3 250z" fill="url(&quot;#SvgjsLinearGradient1022&quot;)"></path><path d="M712.1999999999999 250L462.19999999999993 0L214.69999999999993 0L464.69999999999993 250z" fill="url(&quot;#SvgjsLinearGradient1022&quot;)"></path><path d="M1232.3078640621834 250L1440 42.30786406218334L1440 250z" fill="url(&quot;#SvgjsLinearGradient1021&quot;)"></path><path d="M0 250L207.69213593781666 250L 0 42.30786406218334z" fill="url(&quot;#SvgjsLinearGradient1022&quot;)"></path></g><defs><mask id="SvgjsMask1020"><rect width="1440" height="250" fill="#ffffff"></rect></mask><linearGradient x1="0%" y1="100%" x2="100%" y2="0%" id="SvgjsLinearGradient1021"><stop stop-color="rgba(255, 141, 121, 1)" offset="0"></stop><stop stop-opacity="0" stop-color="rgba(255, 141, 121, 1)" offset="0.66"></stop></linearGradient><linearGradient x1="100%" y1="100%" x2="0%" y2="0%" id="SvgjsLinearGradient1022"><stop stop-color="rgba(255, 141, 121, 1)" offset="0"></stop><stop stop-opacity="0" stop-color="rgba(255, 141, 121, 1)" offset="0.66"></stop></linearGradient></defs></svg>