<svg fill="none" height="66" viewBox="0 0 166 66" width="166" xmlns="http://www.w3.org/2000/svg" xmlns:xlink="http://www.w3.org/1999/xlink"><clipPath id="a"><path d="m0 0h166v66h-166z"/></clipPath><g clip-path="url(#a)" fill="#002a54"><path d="m48.247 35.2903.2561-.0534c-.4174-1.6732-.7033-3.3767-.855-5.0948 0 0-3.7726-2.1981-5.6904-2.8725-.6831-.2459-1.3798-.4517-2.0867-.6163l.0918 2.4601c3.6132 1.1597 7.2457 3.3383 8.2842 6.1672"/><path d="m19.235 34.8389c-.5893-1.2422-.8115-1.7032-.8115-1.7032-3.1033 3.731-4.7679 8.4582-4.6904 13.3194 0 11.7715 8.3471 19.5351 20.5634 19.5351 3.2714-.0262 6.5166-.5883 9.6078-1.6643l5.0334-1.6644 1.2076-6.3903-.2512-.1602c-.7052 1.5091-1.4105 2.4261-3.5745 4.1099-3.0094 2.3727-7.1347 3.5906-11.057 3.5906-10.0136 0-17.5057-7.6374-17.5057-17.4098-.0232-3.3584.8082-6.6671 2.4152-9.6122 0 0-.3381-.7133-.9323-1.9409"/><path d="m5.18794 4.56104c.11006 1.06375.1359 2.1346.07728 3.20247l-.85499 26.30879c-.10144 2.4261-.14975 4.891-3.21711 5.0948v.262h9.52578v-.262c-3.16885-.5677-3.11572-1.9748-2.96597-5.8712l.75356-23.2276s-.9661-2.02336-1.81144-3.45962c-.9661-1.64006-1.50711-2.04764-1.50711-2.04764z"/><path d="m25.2346 30.2683 9.8252-22.14075h.1014l.9661 25.11515c.1981 4.9396-1.0095 5.5121-3.0673 5.9246v.262h11.3806v-.262c-4.0769-.6745-4.1735-2.6008-4.3474-6.6524l-.1256-3.3966-.0918-2.4698-.7487-19.60785c-.1932-5.41023 2.1689-6.03617 4.5358-6.346714v-.257168h-7.8157l-11.97 26.823132z"/><path d="m0 .140683s5.02372 1.314957 7.24574 4.391267c2.71474 3.809 5.00926 10.64575 8.65626 19.01585 4.0673 9.3454 7.4679 17.5069 12.0086 22.3494 5.7145 6.0992 9.632 5.3374 9.632 5.3374s-2.7968-1.4847-6.6467-7.1279c-5.0624-7.4142-10.4532-20.8646-14.791-31.2289-3.1254-7.41422-5.8787-11.61625-10.3083-12.538175-1.90943-.3750433-3.86614-.442198-5.7966-.198942"/><path d="m48.6383 29.8703v-.7957l.9323-.068c.4467.0078.8877-.1009 1.2801-.3154.3429-.3105.4106-.9704.4106-4.299v-12.1694c.043-1.2277-.0022-2.45689-.1353-3.67802-.1063-.65991-.4154-.86855-1.5554-.93649l-.9323-.06793v-.80061h15.018c.245 1.39707.371 2.81257.3768 4.23115 0 .3154 0 .524-.0338 1.0432l-.826.1359c-.4831-2.3582-.7971-3.15397-1.4878-3.67316-.6908-.51919-1.5844-.62593-4.2798-.62593h-2.8983v9.39879h2.9755c.8301.0179 1.6602-.0291 2.4829-.1407.797-.1019 1.14-.4173 1.2463-1.349l.1352-1.2858h.8985v6.6233h-.8985l-.1739-1.2131c-.1014-.7278-.2753-1.0044-.6183-1.1791-.4492-.2086-1.4153-.3105-2.9707-.3105h-3.0722v10.0538c1.3027.2985 2.6345.4498 3.9707.4513 1.8307 0 3.3137-.2766 4.246-.8298.5276-.3006.9584-.7468 1.2414-1.2858.4492-.8297.5507-1.1791.9661-2.8774l.8647.1359c-.0904 1.085-.2518 2.163-.4831 3.2267-.1753.8808-.406 1.7494-.6908 2.6008z"/><path d="m75.9837 18.7053c.9876.0699 1.9781-.0843 2.8983-.4512 1.6907-.7279 2.8307-2.7755 2.8307-5.0609 0-3.36258-2.1061-5.30833-5.6952-5.30833-.6832-.00067-1.3652.05777-2.0385.17468v10.64575zm-2.0047 5.6869v1.2809l.0339 1.2859c.0338 1.6983.2077 1.9409 1.623 2.0476l.9323.068v.7957h-8.4582v-.7957l.9323-.068c.4452.009.885-.0998 1.2752-.3154.2416-.2426.3478-.6938.3816-1.7322s.0338-1.839.0338-2.5668v-13.4553c.0324-.7999-.0129-1.60105-.1352-2.39212-.1063-.65991-.4154-.86855-1.5554-.93649l-.9323-.06793v-.80061h8.9074c2.6568 0 3.8306.20864 5.2798.90251.8661.41706 1.5922 1.07912 2.0891 1.90489.4968.82575.7428 1.77935.7077 2.74355.0077.8261-.1573 1.6447-.4843 2.4028s-.8088 1.4388-1.4141 1.9982c-.8038.8162-1.7524 1.4745-2.7968 1.9409.314.655.5506 1.1063.7245 1.4217 1.1127 2.2011 2.358 4.332 3.7292 6.3806.9661 1.4557 1.5554 2.0768 2.3138 2.4262.4715.1841.9792.2556 1.483.2086v.7958h-2.6665c-2.5215 0-3.8644-1.315-6.4583-6.206l-1.2077-2.2903c-.2207-.4374-.5112-.8357-.8598-1.1791-.4492-.3445-.7294-.3785-2.1786-.3785h-1.2752z"/><path d="m109.309 23.1452c-.083 1.1004-.269 2.1905-.555 3.2558-.203.9335-.505 1.8427-.899 2.7124-.757.3656-1.557.633-2.381.7958-1.667.3639-3.367.5509-5.072.558-7.8739 0-12.7044-4.5805-12.7044-11.9996 0-7.5258 5.072-12.2761 13.1144-12.2761 1.595-.00494 3.184.18075 4.734.55316.806.18167 1.583.47393 2.309.86854.212.83057.351 1.67806.416 2.5329.103.8857.149 1.777.14 2.6687l-.932.2086c-.139-.8362-.383-1.6513-.725-2.4261-.932-2.14951-3.038-3.26067-6.111-3.26067-5.8349 0-9.2887 3.88177-9.2887 10.36917 0 7.0746 3.6277 11.5823 9.2557 11.5823 1.83 0 3.521-.4173 4.622-1.1791.459-.3305.866-.7279 1.208-1.1791.865-1.1111 1.212-1.839 1.898-3.9545z"/><path d="m130.747 6.73975v.80061l-.898.17468c-.27.02698-.531.11202-.765.24933-.235.13732-.437.32369-.593.54644-.758.90251-2.072 3.05209-3.729 5.96339-1.517 2.7415-2.555 4.7843-2.797 5.5849-.264 1.2417-.379 2.5107-.343 3.7799v.5532c-.044 1.2034.001 2.4085.135 3.6052.107.6259.348.8006 1.213.8685l.377.0679 1.483.1747v.7618h-9.661v-.7569l1.516-.1747c.293-.0125.583-.058.865-.1359.618-.1407.759-.524.792-1.8729l.034-1.2859v-1.6012c0-1.7323 0-2.0768-.101-2.562-.133-.4984-.306-.9851-.517-1.4557-.623-1.3198-1.903-3.7798-2.729-5.2355l-1.933-3.4354c-.381-.6599-.758-1.3538-1.106-2.04763-.584-1.1063-.898-1.34892-1.932-1.59153l-.797-.17468v-.80061h8.84v.80061l-1.797.31055c-.377.06793-.618.14071-.652.14071-.105.01377-.202.06153-.277.136-.075.07448-.124.17156-.139.27644.011.21344.083.41919.208.59197.034.14072.242.51919.551 1.17907.309.6599.792 1.6643 1.623 3.2268.949 1.9949 2.022 3.9282 3.212 5.7887 1.241-2.2175 1.618-2.9114 3.072-5.8615.619-1.2471 1.068-2.1835 1.411-2.9114.623-1.35374.729-1.63031.729-1.94086 0-.31054-.28-.51918-1.174-.6599l-1.763-.27658v-.80061z"/><path d="m53.6861 44.1941c0 6.633 3.3331 10.9418 8.5162 10.9418 4.8305 0 7.8206-3.7799 7.8206-9.8791 0-6.6622-3.3814-11.1602-8.3809-11.1602-4.8305 0-7.9559 3.9789-7.9559 10.0781zm19.8679.1456c0 7.0309-4.8837 11.8685-11.9797 11.8685-6.9317 0-11.4193-4.4737-11.4193-11.4027 0-6.8271 5.0817-11.8006 12.0473-11.8006 6.7965 0 11.3517 4.5417 11.3517 11.3348z"/><path d="m74.5345 55.6648v-.7278l.8889-.1019c.4262.0114.8479-.0907 1.2221-.296.3284-.3008.3961-.9316.3961-4.1098v-11.6114c.041-1.1726-.0026-2.3467-.1305-3.513-.1014-.6308-.3961-.8298-1.4877-.8977l-.8889-.0679v-.7861h8.5114v.7618l-1.3187.165-.3623.034c-.7922.0679-1.0241.2668-1.1207.8297-.0952 1.1473-.1291 2.299-.1014 3.4499v15.5272c1.2015.2715 2.4299.405 3.6615.3978 1.9853 0 3.4683-.3299 4.2267-.9704.6279-.5289 1.2221-1.8584 1.6858-3.712l.8888.131c-.198 1.4897-.2657 1.9895-.4299 2.8532-.1681.9017-.4105 1.7878-.7246 2.6493z"/><path d="m91.9581 55.6648v-.7278l.8937-.1019c.4246.0106.8445-.0915 1.2173-.296.3333-.3008.3961-.9316.3961-4.1098v-11.6114c.041-1.1726-.0026-2.3467-.1305-3.513-.0966-.6308-.3961-.8298-1.4829-.8977l-.8937-.0679v-.7861h8.5159v.7618l-1.3184.165-.3623.034c-.7922.0679-1.0241.2668-1.1255.8297-.0917 1.1556-.1223 2.3153-.0918 3.4742v15.5271c1.2015.2718 2.43.4053 3.662.3979 1.98 0 3.463-.3299 4.226-.9704.623-.5289 1.217-1.8584 1.681-3.712l.894.131c-.203 1.4896-.266 1.9894-.43 2.8531-.167.9024-.412 1.7888-.729 2.6493z"/><path d="m109.387 55.6648v-.7618l.888-.0679c.427.0114.848-.0907 1.223-.296.328-.3008.396-.9316.396-4.1098v-11.6114c.041-1.1726-.003-2.3467-.131-3.513-.101-.6308-.396-.8298-1.488-.8977l-.888-.0679v-.7861h14.356c.233 1.3364.354 2.6901.362 4.0468 0 .296 0 .4852-.034.9947l-.792.131c-.483-2.2563-.758-3.0181-1.42-3.513s-1.517-.5968-4.091-.5968h-2.773v8.9814h2.84c.794.0155 1.589-.0283 2.377-.131.758-.1019 1.087-.3979 1.188-1.2907l.13-1.2276h.86v6.3079h-.86l-.164-1.1597c-.101-.6987-.265-.9704-.594-1.1305-.43-.199-1.352-.296-2.84-.296h-2.937v9.6122c1.246.2836 2.519.4285 3.797.4319 1.748 0 3.168-.2669 4.057-.7958.506-.2847.919-.7112 1.188-1.2276.43-.7958.527-1.1257.923-2.7512l.826.131c-.086 1.0376-.239 2.0685-.459 3.086-.168.8414-.389 1.6712-.662 2.4844z"/><path d="m148.668 48.1728v.7618l-.729.0679c-.99.0971-1.121.33-1.121 2.4261-.05.7579.017 1.519.198 2.2563.034.1019.131.1359.329.1359h.367l.227.6599c-1.494.67-3.07 1.1382-4.686 1.3926-1.286.2261-2.588.3478-3.893.3639-2.206.0353-4.395-.3824-6.434-1.2276-3.763-1.6546-6.208-5.7014-6.208-10.3061-.029-7.1619 5.019-11.6454 13.004-11.6454 2.642 0 4.719.3639 6.338 1.1597.257.8698.444 1.759.56 2.659.13 1.0966.164 1.5285.232 2.6202l-.99.131c-.09-.9157-.36-1.8045-.793-2.6153-.99-1.9409-3.004-2.9114-5.975-2.9114-5.705 0-8.874 3.6149-8.874 10.0781 0 6.7931 3.725 10.9078 9.932 10.9078 1.187.0174 2.372-.1047 3.531-.3639v-2.7512l-.034-1.1306c-.034-.8249-.096-1.1888-.43-1.4217-.231-.165-.362-.1989-1.217-.3008l-1.782-.199v-.7472z"/><path d="m149.6 55.6648v-.7618l.889-.0679c.427.0114.848-.0907 1.222-.296.329-.3008.396-.9316.396-4.1098v-11.6114c.044-1.1728-.001-2.3471-.135-3.513-.096-.6308-.396-.8298-1.483-.8977l-.889-.0679v-.7861h14.357c.235 1.3361.356 2.6899.362 4.0468 0 .296 0 .4852-.034.9947l-.792.131c-.483-2.2563-.758-3.0181-1.42-3.513s-1.517-.5968-4.092-.5968h-2.772v8.9814h2.84c.793.0157 1.586-.0281 2.372-.131.763-.1019 1.091-.3979 1.193-1.2907l.13-1.2276h.86v6.3079h-.86l-.164-1.1597c-.101-.6987-.266-.9704-.594-1.1305-.43-.199-1.353-.296-2.84-.296h-2.937v9.6122c1.246.2836 2.519.4285 3.796.4319 1.749 0 3.164-.2669 4.058-.7958.506-.2847.919-.7112 1.188-1.2276.43-.7958.527-1.1257.923-2.7512l.826.131c-.091 1.0385-.253 2.0695-.483 3.086-.166.8413-.386 1.6711-.657 2.4844z"/></g></svg>