<?xml version="1.0" encoding="utf-8"?>
<!-- Generator: Adobe Illustrator 28.0.0, SVG Export Plug-In . SVG Version: 6.00 Build 0)  -->
<svg version="1.1" id="Layer_1" xmlns="http://www.w3.org/2000/svg" xmlns:xlink="http://www.w3.org/1999/xlink" x="0px" y="0px"
	 viewBox="0 0 244.2 57.6" style="enable-background:new 0 0 244.2 57.6;" xml:space="preserve">
<style type="text/css">
	.st0{fill:#3B234F;}
</style>
<g>
	<polygon class="st0" points="26.4,23.5 11.1,23.5 11.1,0.1 0,0.1 0,56.7 11.1,56.7 11.1,33.8 26.4,33.8 26.4,56.7 37.4,56.7 
		37.4,0.1 26.4,0.1 	"/>
	<path class="st0" d="M62.4,15.5c-5.4-0.5-7-1.3-7-3.4c0-1.7,2.4-3,5.5-3c3,0,6,1.1,7.9,2.8l0.7,0.6l6.7-5.8l-0.7-0.8
		C71.9,1.7,67.6,0,60.9,0c-7.6,0-15.7,3.8-15.7,12.1C45,22,53.5,24,60.8,24.6c6.1,0.5,6.5,2.3,6.5,3.9c0,2-2.5,3.3-6.4,3.3
		c-3.4,0-7.9-1.5-10.5-4.8l-0.7-1l-6.4,6.6l0.4,0.7c2.9,4.9,9.4,8,16.5,8c0.2,0,0.4,0,0.6,0c7.7,0,16.7-3.3,16.7-12.8
		C77.7,20.8,72.5,16.4,62.4,15.5"/>
	<path class="st0" d="M110.1,0.1v38c0,6.3-2.5,9.3-7.7,9.3c-5.6,0-8.6-3.2-8.6-9.3v-38h-11v38c0,11.8,7.6,19.5,19.5,19.5
		c11.8,0,18.8-7.3,18.8-19.5v-38H110.1z"/>
	<rect x="43.8" y="45.8" class="st0" width="33.5" height="10.9"/>
	<polygon class="st0" points="142.3,0.3 142.3,5.5 136,5.5 136,0.3 133.6,0.3 133.6,13.3 136,13.3 136,7.8 142.3,7.8 142.3,13.3 
		144.8,13.3 144.8,0.3 	"/>
	<polygon class="st0" points="150,11 150,7.8 156.9,7.8 156.9,5.6 150,5.6 150,2.5 157.2,2.5 157.2,0.3 147.5,0.3 147.5,13.3 
		157.3,13.3 157.3,11 	"/>
	<path class="st0" d="M167.2,0.3h-2.6l-5.8,13h2.7l1.2-2.6h6.6l1.2,2.6h2.7L167.2,0.3z M168.2,8.4h-4.6l2.3-5.4L168.2,8.4z"/>
	<polygon class="st0" points="176.9,11 176.9,0.3 174.4,0.3 174.4,13.3 183.6,13.3 183.6,11 	"/>
	<polygon class="st0" points="182.2,0.3 182.2,2.6 186.3,2.6 186.3,13.3 188.8,13.3 188.8,2.6 192.9,2.6 192.9,0.3 	"/>
	<polygon class="st0" points="203.1,0.3 203.1,5.5 196.9,5.5 196.9,0.3 194.4,0.3 194.4,13.3 196.9,13.3 196.9,7.8 203.1,7.8 
		203.1,13.3 205.6,13.3 205.6,0.3 	"/>
	<path class="st0" d="M138.6,27.3c-2-0.3-2.9-0.8-2.9-1.7c0-0.9,1.1-1.6,2.7-1.6c1.2,0,2.5,0.4,3.5,1.2l0.1,0.1l1.3-1.8l-0.1-0.1
		c-1.3-1-3.1-1.6-4.8-1.6c-3,0-5.1,1.6-5.1,3.8c0,2.3,1.5,3.5,5.1,4c2.1,0.3,3,0.8,3,1.7c0,1-1.1,1.7-2.9,1.7
		c-1.5,0-3.1-0.5-4.1-1.4l-0.1-0.1l-1.3,1.9l0.1,0.1c1.5,1.2,3.5,1.8,5.5,1.8c3.2,0,5.4-1.6,5.4-4.1C143.8,29,142.3,27.8,138.6,27.3
		"/>
	<path class="st0" d="M155.2,31.6l-0.1,0.1c-0.8,0.8-2,1.3-3.3,1.3c-2.6,0-4.4-1.8-4.4-4.5c0-2.6,1.8-4.5,4.4-4.5
		c1.2,0,2.3,0.4,3.1,1.3l0.1,0.1l1.7-1.5l-0.1-0.1c-1.3-1.3-3-2-4.9-2c-4,0-6.8,2.8-6.8,6.8c0,4,2.8,6.8,6.8,6.8
		c2,0,3.6-0.7,4.9-1.9l0.1-0.1L155.2,31.6z"/>
	<rect x="158.7" y="22" class="st0" width="2.5" height="13"/>
	<polygon class="st0" points="166.8,32.7 166.8,29.5 173.7,29.5 173.7,27.3 166.8,27.3 166.8,24.3 174.1,24.3 174.1,22 164.4,22 
		164.4,35 174.2,35 174.2,32.7 	"/>
	<polygon class="st0" points="185.8,22 185.8,27.5 185.8,30.7 179.2,22 177,22 177,35 179.5,35 179.5,29.8 179.5,26.3 186.1,35 
		188.2,35 188.2,22 	"/>
	<path class="st0" d="M200.5,31.6l-0.1,0.1c-0.8,0.8-2,1.3-3.3,1.3c-2.6,0-4.4-1.8-4.4-4.5c0-2.6,1.8-4.5,4.4-4.5
		c1.2,0,2.3,0.4,3.1,1.3l0.1,0.1l1.7-1.5l-0.1-0.1c-1.3-1.3-3-2-4.9-2c-4,0-6.8,2.8-6.8,6.8c0,4,2.8,6.8,6.8,6.8
		c2,0,3.6-0.7,4.9-1.9l0.1-0.1L200.5,31.6z"/>
</g>
<g>
	<polygon class="st0" points="206.2,32.7 206.2,29.5 213.1,29.5 213.1,27.3 206.2,27.3 206.2,24.3 213.4,24.3 213.4,22 203.7,22 
		203.7,35 213.5,35 213.5,32.7 	"/>
	<path class="st0" d="M220.6,27.3c-2-0.3-2.9-0.8-2.9-1.7c0-0.9,1.1-1.6,2.7-1.6c1.2,0,2.5,0.4,3.5,1.2l0.1,0.1l1.3-1.8l-0.1-0.1
		c-1.3-1-3.1-1.6-4.8-1.6c-3,0-5.1,1.6-5.1,3.8c0,2.3,1.5,3.5,5.1,4c2.1,0.3,3,0.8,3,1.7c0,1-1.1,1.7-2.9,1.7
		c-1.5,0-3.1-0.5-4.1-1.4l-0.1-0.1l-1.3,1.9l0.1,0.1c1.5,1.2,3.5,1.8,5.5,1.8c3.2,0,5.4-1.6,5.4-4.1C225.8,29,224.3,27.8,220.6,27.3
		"/>
	<path class="st0" d="M142.3,43.7v7.6c0,2.1-1.2,3.4-3.2,3.4s-3.2-1.3-3.2-3.4v-7.6h-2.5v7.6c0,3.5,2.2,5.7,5.6,5.7s5.6-2.2,5.6-5.7
		v-7.6H142.3z"/>
	<polygon class="st0" points="156.1,43.7 156.1,49.2 156.2,52.5 149.6,43.7 147.4,43.7 147.4,56.8 149.9,56.8 149.9,51.6 
		149.8,48.1 156.4,56.8 158.6,56.8 158.6,43.7 	"/>
	<rect x="161.4" y="43.7" class="st0" width="2.5" height="13"/>
	<polygon class="st0" points="175.8,43.7 171.8,53.7 170,49.1 167.8,43.7 165.1,43.7 170.5,56.8 173,56.8 178.4,43.7 	"/>
	<polygon class="st0" points="182.2,54.5 182.2,51.3 189.1,51.3 189.1,49.1 182.2,49.1 182.2,46 189.4,46 189.4,43.7 179.7,43.7 
		179.7,56.8 189.5,56.8 189.5,54.5 	"/>
	<path class="st0" d="M199.4,52.2c2-0.5,3.1-2.1,3.1-4.1c0-2.6-1.9-4.4-4.7-4.4h-6.1v13h2.5v-4.3h2.3l3.7,4.3h3.1L199.4,52.2z
		 M200.1,48.1c0,1.3-0.8,2.1-2.2,2.1h-3.6v-4.1h3.6C199.2,46.1,200.1,46.8,200.1,48.1"/>
	<path class="st0" d="M209.6,49c-2-0.3-2.9-0.8-2.9-1.7c0-0.9,1.1-1.6,2.7-1.6c1.2,0,2.5,0.4,3.5,1.2L213,47l1.3-1.8l-0.1-0.1
		c-1.3-1-3.1-1.6-4.8-1.6c-3,0-5.1,1.6-5.1,3.8c0,2.3,1.5,3.5,5.1,4c2.1,0.3,3,0.8,3,1.7c0,1-1.1,1.7-2.9,1.7
		c-1.5,0-3.1-0.5-4.1-1.4l-0.1-0.1l-1.3,1.9l0.1,0.1c1.5,1.2,3.5,1.8,5.5,1.8c3.2,0,5.4-1.6,5.4-4.1C214.9,50.7,213.3,49.6,209.6,49
		"/>
	<rect x="216.7" y="43.7" class="st0" width="2.5" height="13"/>
	<polygon class="st0" points="220.7,43.7 220.7,46.1 224.8,46.1 224.8,56.8 227.3,56.8 227.3,46.1 231.4,46.1 231.4,43.7 	"/>
	<polygon class="st0" points="241.2,43.7 237.7,49.1 234.3,43.7 231.3,43.7 236.5,51.5 236.5,56.8 238.9,56.8 238.9,51.5 
		244.2,43.7 	"/>
</g>
</svg>
